<?xml version="1.0" encoding="utf-8"?>
<!-- Generator: Adobe Illustrator 28.1.0, SVG Export Plug-In . SVG Version: 6.00 Build 0)  -->
<svg version="1.1" id="Layer_1" xmlns="http://www.w3.org/2000/svg" xmlns:xlink="http://www.w3.org/1999/xlink" x="0px" y="0px"
	 viewBox="0 0 202 76" style="enable-background:new 0 0 202 76;" xml:space="preserve">
<style type="text/css">
	.st0{fill:#C69214;}
	.st1{fill:#182B49;}
</style>
<g>
	<g>
		<path class="st0" d="M27.5,53.4l-22.3-22C2.6,28.9,0.9,25,0.9,20.1v-8.6c0-6.8,4.5-11.4,11.4-11.4h20.2c6.8,0,11.4,4.6,11.4,11.4
			v13H27.8v-8.8c0-0.2-0.1-0.3-0.3-0.3H17.3c-0.2,0-0.3,0.1-0.3,0.3v4.6c0,0.3,0.1,0.5,0.3,0.8l22.3,22c2.6,2.6,4.3,6.5,4.3,11.3
			v10.1c0,6.8-4.6,11.4-11.4,11.4H12.3c-6.9,0-11.4-4.6-11.4-11.4v-13H17v8.8c0,0.2,0.1,0.3,0.3,0.3h10.1c0.2,0,0.3-0.1,0.3-0.3
			v-6.1C27.8,53.8,27.7,53.6,27.5,53.4z"/>
		<path class="st0" d="M84.9,75.7H53.3V0.3h31.6c6.8,0,11.4,4.6,11.4,11.4v52.5C96.3,71,91.7,75.7,84.9,75.7z M80.2,60.3V15.7
			c0-0.2-0.1-0.3-0.3-0.3H69.4v45.2h10.4C80.1,60.6,80.2,60.5,80.2,60.3z"/>
		<path class="st1" d="M132.3,53.4l-22.3-22c-2.6-2.6-4.3-6.5-4.3-11.3v-8.6c0-6.8,4.5-11.4,11.4-11.4h20.2
			c6.8,0,11.4,4.6,11.4,11.4v13h-16.1v-8.8c0-0.2-0.1-0.3-0.3-0.3h-10.1c-0.2,0-0.3,0.1-0.3,0.3v4.6c0,0.3,0.1,0.5,0.3,0.8l22.3,22
			c2.6,2.6,4.3,6.5,4.3,11.3v10.1c0,6.8-4.6,11.4-11.4,11.4h-20.2c-6.9,0-11.4-4.6-11.4-11.4v-13h16.1v8.8c0,0.2,0.1,0.3,0.3,0.3
			h10.1c0.2,0,0.3-0.1,0.3-0.3v-6.1C132.6,53.8,132.5,53.6,132.3,53.4z"/>
		<path class="st1" d="M189.7,75.9h-20.2c-6.8,0-11.4-4.6-11.4-11.4V11.5c0-6.8,4.6-11.4,11.4-11.4h20.2c6.8,0,11.4,4.6,11.4,11.4
			v13H185v-8.8c0-0.2-0.1-0.3-0.3-0.3h-10.1c-0.2,0-0.3,0.1-0.3,0.3v44.6c0,0.2,0.1,0.3,0.3,0.3h10.1c0.2,0,0.3-0.1,0.3-0.3v-8.8
			h16.1v13C201.1,71.3,196.5,75.9,189.7,75.9z"/>
	</g>
</g>
</svg>
