<?xml version="1.0" encoding="UTF-8"?>
<svg id="Layer_1" data-name="Layer 1" xmlns="http://www.w3.org/2000/svg" viewBox="0 0 388 100">
  <g>
    <path d="M32.87,25.94c0,7.67-1.12,13.49-12.77,13.49s-13.38-5.6-13.38-13.49V7.29c0-4.2-1.79-4.59-4.87-4.59v-1.12h14.72v1.12c-3.02,0-4.87.39-4.87,4.59v18.64c0,5.71,1.35,11.3,8.62,11.3,8.07,0,9.35-4.64,9.35-11.3V7.29c0-4.2-1.84-4.59-4.87-4.59v-1.12h12.93v1.12c-3.08,0-4.87.39-4.87,4.59v18.64Z" fill="#12284c" stroke-width="0"/>
    <path d="M63.83,37.91c-2.74,1.01-5.88,1.51-10.02,1.51-11.19,0-16.57-8.51-16.57-20.43,0-10.36,3.35-17.97,15.34-17.97,4.48,0,8.29.9,10.75,1.56l.5,8.79h-1.4c-.73-3.14-2.96-8.18-9.91-8.18-9.01,0-9.74,9.57-9.74,15.34,0,7.22,1.57,18.36,13.83,18.36,3.75,0,5.77-.84,7.22-1.4v2.41Z" fill="#12284c" stroke-width="0"/>
    <path d="M93.9,9.64c-.51-2.96-2.75-6.44-8.74-6.44-3.75,0-7.06,2.41-7.06,6.1,0,4.98,6.67,6.61,11.54,9.46,4.42,2.58,7.38,4.87,7.38,10.19,0,7.11-6.16,10.47-13.83,10.47-3.81,0-8.22-.84-9.63-1.07l-.39-7.89h1.4c.45,2.97,3.08,6.44,9.07,6.44,4.93,0,8.12-3.19,8.12-7.05,0-6.04-9.29-7.89-14.5-11.87-2.46-1.9-3.64-3.92-3.64-7.5,0-6.72,5.54-9.46,12.59-9.46,3.76,0,6.16.45,8.68.95l.39,7.67h-1.4Z" fill="#12284c" stroke-width="0"/>
    <path d="M119.91,38.91c-.6.15-1.84.45-3.63.45-2.89,0-3.74-1.49-3.74-3.63h-.1c-1.53,2.24-3.68,3.63-7.07,3.63s-5.97-2.39-5.97-5.63c0-7.22,9.36-7.22,13.15-7.57v-1.89c0-3.49-.05-7.17-4.23-7.17-3.09,0-3.49,1.3-3.49,2.89,0,2.04-1.49,2.59-2.34,2.59-1.35,0-2.39-.9-2.39-2.24,0-3.24,4.83-4.88,8.27-4.88,6.82,0,8.06,3.28,8.06,7.91v12.35c0,1.74.6,2.34,2.14,2.34.45,0,.9-.1,1.34-.2v1.04ZM112.54,27.81c-2.34.05-8.72.5-8.72,5.13,0,2.59,1.7,4.33,3.39,4.33,3.24,0,5.33-3.14,5.33-6.52v-2.94Z" fill="#12284c" stroke-width="0"/>
    <path d="M121.01,38.02c2.09,0,3.78-.45,3.78-3.68v-13.6c0-2.99-2.34-3.14-3.78-3.24v-.85l7.67-1.19v6.57h.1c.69-1.84,2.93-6.57,7.86-6.57,5.28,0,5.78,2.88,5.78,7.52v11.36c0,3.24,1.69,3.68,3.78,3.68v.85h-11.45v-.85c2.09,0,3.79-.45,3.79-3.68v-10.26c0-4.28-.05-6.23-3.34-6.23-2.93,0-6.52,5.62-6.52,10.36v6.13c0,3.24,1.69,3.68,3.79,3.68v.85h-11.45v-.85Z" fill="#12284c" stroke-width="0"/>
    <path d="M151.9,37.74c3.03,0,4.87-.39,4.87-4.59V7.29c0-4.2-1.85-4.59-4.87-4.59v-1.12h13.1c9.29,0,19.14,2.02,19.14,18.7s-10.35,18.59-19.14,18.59h-13.1v-1.12ZM161.75,31.98c0,4.08.45,4.7,3.25,4.7,9.63,0,13.6-5.15,13.6-16.4,0-10.3-2.96-16.51-13.6-16.51-2.8,0-3.25.34-3.25,4.7v23.51Z" fill="#12284c" stroke-width="0"/>
    <path d="M186.18,38.02c2.1,0,3.79-.45,3.79-3.68v-13.6c0-2.99-2.29-3.14-3.79-3.24v-.85l7.67-1.19v18.87c0,3.24,1.69,3.68,3.78,3.68v.85h-11.46v-.85ZM188.93,8.04c0-1.59,1.24-2.84,2.83-2.84s2.84,1.24,2.84,2.84-1.24,2.84-2.84,2.84-2.83-1.24-2.83-2.84Z" fill="#12284c" stroke-width="0"/>
    <path d="M215.67,38.46c-1.2.45-2.89.9-5.93.9-7.72,0-12.05-4.23-12.05-12.6,0-7.27,2.94-11.3,10.11-11.3,4.48,0,8.52,2.49,8.52,8.26v1.1h-14.49c0,4.18,2.04,12.7,10.36,12.7,1.14,0,2.49-.15,3.49-.65v1.59ZM211.88,23.18c0-2.64-.9-6.07-4.73-6.07s-5.33,4.23-5.33,6.07h10.06Z" fill="#12284c" stroke-width="0"/>
    <path d="M232.5,34.88c2.38,0,7.92.1,7.92,5.63s-5.58,8.86-12.2,8.86c-4.88,0-9.96-1.84-9.96-6.32,0-3.09,2.29-4.43,3.89-5.23-.85-.49-2.14-1.44-2.14-3.53,0-1.84,1.59-3.73,2.14-4.33-1.15-.94-2.89-2.44-2.89-6.67,0-6.42,4.68-7.82,9.41-7.82,2.29,0,3.54.4,5.14,1.24.79-1.89,1.98-5.33,5.02-5.33,1.4,0,2.39.9,2.39,2.39,0,1.35-.85,2.25-2.34,2.25-1.29,0-1.59-.7-2.24-.7-1.09,0-1.54,1.45-1.79,2.24.59.65,2.24,2.49,2.24,5.98,0,5.03-3.13,7.87-9.11,7.87-1.99,0-3.44-.25-4.53-.75-.31.4-.9,1.14-.9,2.24,0,1.99,2.49,1.99,4.08,1.99h5.88ZM223.88,38.42c-1,.75-2.39,1.59-2.39,3.83,0,2.94,2.63,5.48,6.97,5.48s8.72-2.34,8.72-5.92c0-2.54-2.09-3.39-4.58-3.39h-8.71ZM228.21,29.75c4.18,0,4.73-3.28,4.73-5.93,0-3.73-1.29-6.72-4.88-6.72-3.94,0-4.68,2.89-4.68,5.78,0,3.78,1.24,6.87,4.83,6.87Z" fill="#12284c" stroke-width="0"/>
    <path d="M240.47,27.41c0-7.47,4.03-11.95,10.4-11.95s10.41,4.48,10.41,11.95-4.03,11.95-10.41,11.95-10.4-4.48-10.4-11.95ZM250.87,37.72c4.98,0,5.98-6.17,5.98-10.3s-1-10.31-5.98-10.31-5.97,6.17-5.97,10.31.99,10.3,5.97,10.3Z" fill="#12284c" stroke-width="0"/>
    <g id="line">
      <path d="M215.71,47.45H1.85v1.26h215.07c-.46-.39-.86-.81-1.21-1.26Z" fill="#c89211" stroke-width="0"/>
      <path d="M260.88,47.45h-19.67c-.45.46-.94.88-1.48,1.26h21.15v-1.26Z" fill="#c89211" stroke-width="0"/>
    </g>
  </g>
  <g>
    <path d="M7.3,72.97c.86.44,2.18.88,3.55.88,1.47,0,2.25-.61,2.25-1.53s-.67-1.39-2.37-1.99c-2.35-.82-3.88-2.12-3.88-4.18,0-2.42,2.02-4.26,5.35-4.26,1.6,0,2.77.34,3.61.71l-.71,2.58c-.57-.27-1.57-.67-2.96-.67s-2.06.63-2.06,1.37c0,.9.8,1.3,2.62,1.99,2.5.92,3.67,2.23,3.67,4.22,0,2.37-1.83,4.39-5.71,4.39-1.62,0-3.21-.42-4.01-.86l.65-2.65Z" fill="#12284c" stroke-width="0"/>
    <path d="M28.95,75.87c-.59.29-1.91.61-3.63.61-4.89,0-7.41-3.04-7.41-7.08,0-4.83,3.44-7.52,7.73-7.52,1.66,0,2.92.34,3.49.63l-.65,2.54c-.65-.27-1.55-.52-2.69-.52-2.54,0-4.51,1.53-4.51,4.68,0,2.83,1.68,4.62,4.54,4.62.97,0,2.04-.21,2.67-.46l.48,2.5Z" fill="#12284c" stroke-width="0"/>
    <path d="M34.28,62.12v5.44h5.27v-5.44h3.19v14.15h-3.19v-5.92h-5.27v5.92h-3.21v-14.15h3.21Z" fill="#12284c" stroke-width="0"/>
    <path d="M58.67,69.05c0,4.64-2.81,7.45-6.95,7.45s-6.66-3.17-6.66-7.2c0-4.24,2.71-7.41,6.89-7.41s6.72,3.25,6.72,7.16ZM48.44,69.23c0,2.77,1.3,4.72,3.44,4.72s3.4-2.06,3.4-4.81c0-2.54-1.22-4.72-3.42-4.72s-3.42,2.06-3.42,4.81Z" fill="#12284c" stroke-width="0"/>
    <path d="M73.88,69.05c0,4.64-2.81,7.45-6.95,7.45s-6.66-3.17-6.66-7.2c0-4.24,2.71-7.41,6.89-7.41s6.72,3.25,6.72,7.16ZM63.66,69.23c0,2.77,1.3,4.72,3.44,4.72s3.4-2.06,3.4-4.81c0-2.54-1.22-4.72-3.42-4.72s-3.42,2.06-3.42,4.81Z" fill="#12284c" stroke-width="0"/>
    <path d="M76.19,62.12h3.21v11.46h5.63v2.69h-8.84v-14.15Z" fill="#12284c" stroke-width="0"/>
    <path d="M104.53,69.05c0,4.64-2.81,7.45-6.95,7.45s-6.66-3.17-6.66-7.2c0-4.24,2.71-7.41,6.89-7.41s6.72,3.25,6.72,7.16ZM94.31,69.23c0,2.77,1.3,4.72,3.44,4.72s3.4-2.06,3.4-4.81c0-2.54-1.22-4.72-3.42-4.72s-3.42,2.06-3.42,4.81Z" fill="#12284c" stroke-width="0"/>
    <path d="M106.84,62.12h8.65v2.62h-5.44v3.23h5.08v2.6h-5.08v5.69h-3.21v-14.15Z" fill="#12284c" stroke-width="0"/>
    <path d="M132.96,75.87c-.59.29-1.91.61-3.63.61-4.89,0-7.41-3.04-7.41-7.08,0-4.83,3.44-7.52,7.73-7.52,1.66,0,2.92.34,3.49.63l-.65,2.54c-.65-.27-1.55-.52-2.69-.52-2.54,0-4.51,1.53-4.51,4.68,0,2.83,1.68,4.62,4.54,4.62.97,0,2.04-.21,2.67-.46l.48,2.5Z" fill="#12284c" stroke-width="0"/>
    <path d="M147.67,69.05c0,4.64-2.81,7.45-6.95,7.45s-6.66-3.17-6.66-7.2c0-4.24,2.71-7.41,6.89-7.41s6.72,3.25,6.72,7.16ZM137.45,69.23c0,2.77,1.3,4.72,3.44,4.72s3.4-2.06,3.4-4.81c0-2.54-1.22-4.72-3.42-4.72s-3.42,2.06-3.42,4.81Z" fill="#12284c" stroke-width="0"/>
    <path d="M161.84,70.85c-.06-1.7-.13-3.76-.13-5.82h-.06c-.44,1.8-1.03,3.82-1.58,5.48l-1.72,5.52h-2.5l-1.51-5.48c-.46-1.66-.95-3.67-1.28-5.52h-.04c-.08,1.91-.15,4.09-.25,5.86l-.25,5.38h-2.96l.9-14.15h4.26l1.39,4.72c.44,1.64.88,3.4,1.2,5.06h.06c.4-1.64.88-3.51,1.34-5.08l1.51-4.7h4.18l.78,14.15h-3.13l-.21-5.42Z" fill="#12284c" stroke-width="0"/>
    <path d="M167.86,62.3c.99-.17,2.37-.29,4.33-.29s3.38.38,4.33,1.13c.9.71,1.51,1.89,1.51,3.28s-.46,2.56-1.3,3.36c-1.09,1.03-2.71,1.49-4.6,1.49-.42,0-.8-.02-1.09-.06v5.06h-3.17v-13.96ZM171.03,68.73c.27.06.61.08,1.07.08,1.7,0,2.75-.86,2.75-2.31,0-1.3-.9-2.08-2.5-2.08-.65,0-1.09.06-1.32.13v4.18Z" fill="#12284c" stroke-width="0"/>
    <path d="M183.11,62.12v8.15c0,2.44.92,3.67,2.56,3.67s2.6-1.18,2.6-3.67v-8.15h3.19v7.94c0,4.37-2.21,6.45-5.9,6.45s-5.67-1.97-5.67-6.49v-7.89h3.21Z" fill="#12284c" stroke-width="0"/>
    <path d="M197,64.8h-3.8v-2.69h10.88v2.69h-3.86v11.46h-3.21v-11.46Z" fill="#12284c" stroke-width="0"/>
    <path d="M209.01,62.12v14.15h-3.21v-14.15h3.21Z" fill="#12284c" stroke-width="0"/>
    <path d="M211.95,76.27v-14.15h3.74l2.94,5.19c.84,1.49,1.68,3.25,2.31,4.85h.06c-.21-1.87-.27-3.78-.27-5.9v-4.14h2.94v14.15h-3.36l-3.02-5.46c-.84-1.51-1.76-3.34-2.46-5l-.06.02c.08,1.87.13,3.86.13,6.17v4.26h-2.94Z" fill="#12284c" stroke-width="0"/>
    <path d="M238.38,75.62c-.99.34-2.86.8-4.72.8-2.58,0-4.45-.65-5.75-1.91-1.3-1.22-2.02-3.07-1.99-5.14.02-4.7,3.44-7.39,8.08-7.39,1.83,0,3.23.36,3.93.69l-.67,2.56c-.78-.34-1.74-.61-3.3-.61-2.67,0-4.68,1.51-4.68,4.58s1.83,4.64,4.45,4.64c.73,0,1.32-.08,1.57-.21v-2.96h-2.18v-2.5h5.27v7.45Z" fill="#12284c" stroke-width="0"/>
    <path d="M239.95,78.77c.65-1.87,1.22-4.05,1.51-5.96l3.25-.21c-.69,2.14-1.64,4.35-2.65,5.98l-2.12.19Z" fill="#12284c" stroke-width="0"/>
    <path d="M254.63,62.12v14.15h-3.21v-14.15h3.21Z" fill="#12284c" stroke-width="0"/>
    <path d="M257.57,76.27v-14.15h3.74l2.94,5.19c.84,1.49,1.68,3.25,2.31,4.85h.06c-.21-1.87-.27-3.78-.27-5.9v-4.14h2.94v14.15h-3.36l-3.02-5.46c-.84-1.51-1.76-3.34-2.46-5l-.06.02c.08,1.87.13,3.86.13,6.17v4.26h-2.94Z" fill="#12284c" stroke-width="0"/>
    <path d="M272.27,62.12h8.65v2.62h-5.44v3.23h5.08v2.6h-5.08v5.69h-3.21v-14.15Z" fill="#12284c" stroke-width="0"/>
    <path d="M296.1,69.05c0,4.64-2.81,7.45-6.95,7.45s-6.66-3.17-6.66-7.2c0-4.24,2.71-7.41,6.89-7.41s6.72,3.25,6.72,7.16ZM285.87,69.23c0,2.77,1.3,4.72,3.44,4.72s3.4-2.06,3.4-4.81c0-2.54-1.22-4.72-3.42-4.72s-3.42,2.06-3.42,4.81Z" fill="#12284c" stroke-width="0"/>
    <path d="M298.4,62.3c1.03-.17,2.56-.29,4.26-.29,2.1,0,3.57.31,4.58,1.11.84.67,1.3,1.66,1.3,2.96,0,1.81-1.28,3.04-2.5,3.49v.06c.99.4,1.53,1.34,1.89,2.65.44,1.6.88,3.44,1.15,3.99h-3.28c-.23-.4-.57-1.55-.99-3.3-.38-1.76-.99-2.25-2.29-2.27h-.96v5.56h-3.17v-13.96ZM301.57,68.39h1.26c1.6,0,2.54-.8,2.54-2.04,0-1.3-.88-1.95-2.35-1.97-.78,0-1.22.06-1.45.1v3.91Z" fill="#12284c" stroke-width="0"/>
    <path d="M323.03,70.85c-.06-1.7-.13-3.76-.13-5.82h-.06c-.44,1.8-1.03,3.82-1.58,5.48l-1.72,5.52h-2.5l-1.51-5.48c-.46-1.66-.95-3.67-1.28-5.52h-.04c-.08,1.91-.15,4.09-.25,5.86l-.25,5.38h-2.96l.9-14.15h4.26l1.39,4.72c.44,1.64.88,3.4,1.2,5.06h.06c.4-1.64.88-3.51,1.34-5.08l1.51-4.7h4.18l.78,14.15h-3.13l-.21-5.42Z" fill="#12284c" stroke-width="0"/>
    <path d="M332.3,72.63l-1.01,3.63h-3.32l4.32-14.15h4.2l4.39,14.15h-3.44l-1.09-3.63h-4.05ZM335.89,70.24l-.88-3c-.25-.84-.5-1.89-.71-2.73h-.04c-.21.84-.42,1.91-.65,2.73l-.84,3h3.13Z" fill="#12284c" stroke-width="0"/>
    <path d="M344.24,64.8h-3.8v-2.69h10.88v2.69h-3.86v11.46h-3.21v-11.46Z" fill="#12284c" stroke-width="0"/>
    <path d="M356.25,62.12v14.15h-3.21v-14.15h3.21Z" fill="#12284c" stroke-width="0"/>
    <path d="M372.13,69.05c0,4.64-2.81,7.45-6.95,7.45s-6.66-3.17-6.66-7.2c0-4.24,2.71-7.41,6.89-7.41s6.72,3.25,6.72,7.16ZM361.9,69.23c0,2.77,1.3,4.72,3.44,4.72s3.4-2.06,3.4-4.81c0-2.54-1.22-4.72-3.42-4.72s-3.42,2.06-3.42,4.81Z" fill="#12284c" stroke-width="0"/>
    <path d="M374.43,76.27v-14.15h3.74l2.94,5.19c.84,1.49,1.68,3.25,2.31,4.85h.06c-.21-1.87-.27-3.78-.27-5.9v-4.14h2.94v14.15h-3.36l-3.02-5.46c-.84-1.51-1.76-3.34-2.46-5l-.06.02c.08,1.87.13,3.86.13,6.17v4.26h-2.94Z" fill="#12284c" stroke-width="0"/>
    <path d="M11.02,95.13l-1.01,3.63h-3.32l4.33-14.15h4.2l4.39,14.15h-3.44l-1.09-3.63h-4.05ZM14.61,92.74l-.88-3c-.25-.84-.5-1.89-.71-2.73h-.04c-.21.84-.42,1.91-.65,2.73l-.84,3h3.13Z" fill="#12284c" stroke-width="0"/>
    <path d="M21.43,98.77v-14.15h3.74l2.94,5.19c.84,1.49,1.68,3.25,2.31,4.85h.06c-.21-1.87-.27-3.78-.27-5.9v-4.14h2.94v14.15h-3.36l-3.02-5.46c-.84-1.51-1.76-3.34-2.46-5l-.06.02c.08,1.87.13,3.86.13,6.17v4.26h-2.94Z" fill="#12284c" stroke-width="0"/>
    <path d="M36.13,84.8c1.18-.19,2.71-.29,4.33-.29,2.69,0,4.43.48,5.79,1.51,1.47,1.09,2.39,2.83,2.39,5.33,0,2.71-.99,4.58-2.35,5.73-1.49,1.24-3.76,1.83-6.53,1.83-1.66,0-2.83-.1-3.63-.21v-13.9ZM39.34,96.35c.27.06.71.06,1.11.06,2.9.02,4.79-1.57,4.79-4.96.02-2.94-1.7-4.49-4.45-4.49-.71,0-1.18.06-1.45.13v9.26Z" fill="#12284c" stroke-width="0"/>
    <path d="M55.41,84.8c1.18-.19,2.71-.29,4.33-.29,2.69,0,4.43.48,5.79,1.51,1.47,1.09,2.39,2.83,2.39,5.33,0,2.71-.99,4.58-2.35,5.73-1.49,1.24-3.76,1.83-6.53,1.83-1.66,0-2.83-.1-3.63-.21v-13.9ZM58.62,96.35c.27.06.71.06,1.11.06,2.9.02,4.79-1.57,4.79-4.96.02-2.94-1.7-4.49-4.45-4.49-.71,0-1.18.06-1.45.13v9.26Z" fill="#12284c" stroke-width="0"/>
    <path d="M72.85,95.13l-1.01,3.63h-3.32l4.33-14.15h4.2l4.39,14.15h-3.44l-1.09-3.63h-4.05ZM76.44,92.74l-.88-3c-.25-.84-.5-1.89-.71-2.73h-.04c-.21.84-.42,1.91-.65,2.73l-.84,3h3.13Z" fill="#12284c" stroke-width="0"/>
    <path d="M84.79,87.3h-3.8v-2.69h10.88v2.69h-3.86v11.46h-3.21v-11.46Z" fill="#12284c" stroke-width="0"/>
    <path d="M95.68,95.13l-1.01,3.63h-3.32l4.33-14.15h4.2l4.39,14.15h-3.44l-1.09-3.63h-4.05ZM99.27,92.74l-.88-3c-.25-.84-.5-1.89-.71-2.73h-.04c-.21.84-.42,1.91-.65,2.73l-.84,3h3.13Z" fill="#12284c" stroke-width="0"/>
    <path d="M110.92,95.47c.86.44,2.18.88,3.55.88,1.47,0,2.25-.61,2.25-1.53s-.67-1.39-2.37-1.99c-2.35-.82-3.88-2.12-3.88-4.18,0-2.42,2.02-4.26,5.35-4.26,1.6,0,2.77.34,3.61.71l-.71,2.58c-.57-.27-1.57-.67-2.96-.67s-2.06.63-2.06,1.37c0,.9.8,1.3,2.62,1.99,2.5.92,3.67,2.23,3.67,4.22,0,2.37-1.83,4.39-5.71,4.39-1.62,0-3.21-.42-4.01-.86l.65-2.65Z" fill="#12284c" stroke-width="0"/>
    <path d="M132.57,98.37c-.59.29-1.91.61-3.63.61-4.89,0-7.41-3.04-7.41-7.08,0-4.83,3.44-7.52,7.73-7.52,1.66,0,2.92.34,3.49.63l-.65,2.54c-.65-.27-1.55-.52-2.69-.52-2.54,0-4.51,1.53-4.51,4.68,0,2.83,1.68,4.62,4.54,4.62.97,0,2.04-.21,2.67-.46l.48,2.5Z" fill="#12284c" stroke-width="0"/>
    <path d="M137.89,84.62v14.15h-3.21v-14.15h3.21Z" fill="#12284c" stroke-width="0"/>
    <path d="M149.25,92.78h-5.21v3.36h5.82v2.62h-9.03v-14.15h8.73v2.62h-5.52v2.94h5.21v2.6Z" fill="#12284c" stroke-width="0"/>
    <path d="M152.33,98.77v-14.15h3.74l2.94,5.19c.84,1.49,1.68,3.25,2.31,4.85h.06c-.21-1.87-.27-3.78-.27-5.9v-4.14h2.94v14.15h-3.36l-3.02-5.46c-.84-1.51-1.76-3.34-2.46-5l-.06.02c.08,1.87.13,3.86.13,6.17v4.26h-2.94Z" fill="#12284c" stroke-width="0"/>
    <path d="M177.36,98.37c-.59.29-1.91.61-3.63.61-4.89,0-7.41-3.04-7.41-7.08,0-4.83,3.44-7.52,7.73-7.52,1.66,0,2.92.34,3.49.63l-.65,2.54c-.65-.27-1.55-.52-2.69-.52-2.54,0-4.51,1.53-4.51,4.68,0,2.83,1.68,4.62,4.54,4.62.97,0,2.04-.21,2.67-.46l.48,2.5Z" fill="#12284c" stroke-width="0"/>
    <path d="M187.9,92.78h-5.21v3.36h5.82v2.62h-9.03v-14.15h8.73v2.62h-5.52v2.94h5.21v2.6Z" fill="#12284c" stroke-width="0"/>
    <path d="M190.91,95.47c.86.44,2.18.88,3.55.88,1.47,0,2.25-.61,2.25-1.53s-.67-1.39-2.37-1.99c-2.35-.82-3.88-2.12-3.88-4.18,0-2.42,2.02-4.26,5.35-4.26,1.6,0,2.77.34,3.61.71l-.71,2.58c-.57-.27-1.58-.67-2.96-.67s-2.06.63-2.06,1.37c0,.9.8,1.3,2.62,1.99,2.5.92,3.67,2.23,3.67,4.22,0,2.37-1.83,4.39-5.71,4.39-1.62,0-3.21-.42-4.01-.86l.65-2.65Z" fill="#12284c" stroke-width="0"/>
  </g>
</svg>