<?xml version="1.0" encoding="utf-8"?>
<!-- Generator: Adobe Illustrator 28.1.0, SVG Export Plug-In . SVG Version: 6.00 Build 0)  -->
<svg version="1.1" id="Layer_1" xmlns="http://www.w3.org/2000/svg" xmlns:xlink="http://www.w3.org/1999/xlink" x="0px" y="0px"
	 viewBox="0 0 134 25" style="enable-background:new 0 0 134 25;" xml:space="preserve">
<style type="text/css">
	.st0{fill:#182B49;}
	.st1{fill:#C69214;}
	.st2{fill:none;stroke:#182B49;stroke-miterlimit:10;}
	.st3{fill:#FFFFFF;}
	.st4{fill:none;stroke:#FFFFFF;stroke-miterlimit:10;}
</style>
<g>
	<g>
		<g>
			<path class="st0" d="M16.1,12.9c0,4-0.6,7-6.6,7c-6,0-6.9-2.9-6.9-7l0-9.6c0-2.2-0.9-2.4-2.5-2.4l0-0.6l7.6,0v0.6
				c-1.6,0-2.5,0.2-2.5,2.4l0,9.6c0,2.9,0.7,5.8,4.4,5.8c4.2,0,4.8-2.4,4.8-5.8l0-9.6c0-2.2-1-2.4-2.5-2.4V0.3l6.7,0v0.6
				c-1.6,0-2.5,0.2-2.5,2.4L16.1,12.9z"/>
			<path class="st0" d="M32,19.1c-1.4,0.5-3,0.8-5.2,0.8c-5.8,0-8.5-4.4-8.5-10.5C18.3,4,20.1,0,26.2,0c2.3,0,4.3,0.5,5.6,0.8
				L32,5.4l-0.7,0c-0.4-1.6-1.5-4.2-5.1-4.2c-4.6,0-5,4.9-5,7.9c0,3.7,0.8,9.5,7.1,9.5c1.9,0,3-0.4,3.7-0.7L32,19.1L32,19.1z"/>
			<path class="st0" d="M47.6,4.5c-0.3-1.5-1.4-3.3-4.5-3.3c-1.9,0-3.6,1.2-3.6,3.1c0,2.6,3.4,3.4,6,4.9c2.3,1.3,3.8,2.5,3.8,5.3
				c0,3.7-3.2,5.4-7.1,5.4c-2,0-4.2-0.4-5-0.6l-0.2-4.1l0.7,0c0.2,1.5,1.6,3.3,4.7,3.3c2.5,0,4.2-1.6,4.2-3.6c0-3.1-4.8-4.1-7.5-6.1
				c-1.3-1-1.9-2-1.9-3.9C37.1,1.4,40,0,43.6,0c1.9,0,3.2,0.2,4.5,0.5l0.2,4L47.6,4.5L47.6,4.5z"/>
			<path class="st0" d="M61,19.6c-0.3,0.1-1,0.2-1.9,0.2c-1.5,0-1.9-0.8-1.9-1.9h-0.1c-0.8,1.2-1.9,1.9-3.7,1.9s-3.1-1.2-3.1-2.9
				c0-3.7,4.8-3.7,6.8-3.9v-1c0-1.8,0-3.7-2.2-3.7c-1.6,0-1.8,0.7-1.8,1.5c0,1.1-0.8,1.3-1.2,1.3c-0.7,0-1.2-0.5-1.2-1.2
				c0-1.7,2.5-2.5,4.3-2.5c3.5,0,4.2,1.7,4.2,4.1v6.4c0,0.9,0.3,1.2,1.1,1.2c0.2,0,0.5-0.1,0.7-0.1L61,19.6L61,19.6z M57.2,13.8
				c-1.2,0-4.5,0.3-4.5,2.6c0,1.3,0.9,2.2,1.7,2.2c1.7,0,2.7-1.6,2.7-3.4V13.8z"/>
			<path class="st0" d="M61.5,19.1c1.1,0,2-0.2,2-1.9v-7c0-1.5-1.2-1.6-2-1.7V8.1l4-0.6v3.4h0.1c0.4-1,1.5-3.4,4.1-3.4
				c2.7,0,3,1.5,3,3.9v5.9c0,1.7,0.9,1.9,2,1.9v0.4l-5.9,0v-0.4c1.1,0,2-0.2,2-1.9v-5.3c0-2.2,0-3.2-1.7-3.2c-1.5,0-3.4,2.9-3.4,5.3
				v3.2c0,1.7,0.9,1.9,2,1.9v0.4l-5.9,0V19.1L61.5,19.1z"/>
			<path class="st0" d="M77.5,19c1.6,0,2.5-0.2,2.5-2.4V3.3c0-2.2-1-2.4-2.5-2.4V0.3l6.8,0c4.8,0,9.9,1,9.9,9.6s-5.3,9.6-9.9,9.6
				l-6.8,0V19L77.5,19z M82.6,16c0,2.1,0.2,2.4,1.7,2.4c5,0,7-2.7,7-8.5c0-5.3-1.5-8.5-7-8.5c-1.4,0-1.7,0.2-1.7,2.4V16L82.6,16z"/>
			<path class="st0" d="M95.2,19.1c1.1,0,2-0.2,2-1.9v-7c0-1.5-1.2-1.6-2-1.7V8.1l4-0.6v9.7c0,1.7,0.9,1.9,2,1.9v0.4l-5.9,0V19.1z
				 M96.6,3.6c0-0.8,0.6-1.5,1.5-1.5c0.8,0,1.5,0.6,1.5,1.5s-0.6,1.5-1.5,1.5C97.2,5.1,96.6,4.5,96.6,3.6z"/>
			<path class="st0" d="M110.4,19.3c-0.6,0.2-1.5,0.5-3.1,0.5c-4,0-6.2-2.2-6.2-6.5c0-3.8,1.5-5.8,5.2-5.8c2.3,0,4.4,1.3,4.4,4.3
				v0.6l-7.5,0c0,2.2,1.1,6.6,5.3,6.6c0.6,0,1.3-0.1,1.8-0.3L110.4,19.3L110.4,19.3z M108.4,11.5c0-1.4-0.5-3.1-2.4-3.1
				s-2.8,2.2-2.8,3.1L108.4,11.5L108.4,11.5z"/>
			<path class="st0" d="M119.1,17.5c1.2,0,4.1,0.1,4.1,2.9s-2.9,4.6-6.3,4.6c-2.5,0-5.1-1-5.1-3.3c0-1.6,1.2-2.3,2-2.7
				c-0.4-0.3-1.1-0.7-1.1-1.8c0-1,0.8-1.9,1.1-2.2c-0.6-0.5-1.5-1.3-1.5-3.4c0-3.3,2.4-4,4.9-4c1.2,0,1.8,0.2,2.7,0.6
				c0.4-1,1-2.7,2.6-2.7c0.7,0,1.2,0.5,1.2,1.2c0,0.7-0.4,1.2-1.2,1.2c-0.7,0-0.8-0.4-1.2-0.4c-0.6,0-0.8,0.7-0.9,1.2
				c0.3,0.3,1.2,1.3,1.2,3.1c0,2.6-1.6,4.1-4.7,4.1c-1,0-1.8-0.1-2.3-0.4c-0.2,0.2-0.5,0.6-0.5,1.2c0,1,1.3,1,2.1,1L119.1,17.5
				L119.1,17.5z M114.6,19.3c-0.5,0.4-1.2,0.8-1.2,2c0,1.5,1.4,2.8,3.6,2.8c2.2,0,4.5-1.2,4.5-3.1c0-1.3-1.1-1.7-2.4-1.7L114.6,19.3
				L114.6,19.3z M116.9,14.9c2.2,0,2.4-1.7,2.4-3.1c0-1.9-0.7-3.5-2.5-3.5c-2,0-2.4,1.5-2.4,3C114.4,13.3,115,14.9,116.9,14.9z"/>
			<path class="st0" d="M123.2,13.6c0-3.9,2.1-6.2,5.4-6.2c3.3,0,5.4,2.3,5.4,6.2s-2.1,6.2-5.4,6.2
				C125.3,19.8,123.2,17.5,123.2,13.6z M128.6,19c2.6,0,3.1-3.2,3.1-5.3s-0.5-5.3-3.1-5.3c-2.6,0-3.1,3.2-3.1,5.3S126,19,128.6,19z"
				/>
			<g id="line_00000126286898826047220060000009772744551024703918_">
				<path class="st1" d="M110.4,24L0.1,24l0,0.7l111,0C110.8,24.4,110.6,24.2,110.4,24L110.4,24z"/>
				<path class="st1" d="M133.7,24l-10.1,0c-0.2,0.2-0.5,0.5-0.8,0.7l10.9,0V24z"/>
			</g>
		</g>
	</g>
</g>
</svg>
